<svg width="125" height="182" viewBox="0 0 125 182" fill="none" xmlns="http://www.w3.org/2000/svg">
<path d="M35.4723 154.74L32.8851 147.573L89.7783 126.701L92.3655 133.869L35.4723 154.74Z" fill="white"/>
<path d="M35.4723 169.992L32.8851 162.825L89.7783 141.957L92.3655 149.124L35.4723 169.992Z" fill="white"/>
<path d="M44.3244 182L41.7371 174.833L80.9268 160.458L83.514 167.626L44.3244 182Z" fill="white"/>
<path d="M52.2965 63.7004H44.6839V85.8207H52.2965V63.7004Z" fill="#FFC306"/>
<path d="M65.7233 63.7004H58.1106V85.8207H65.7233V63.7004Z" fill="#FFC306"/>
<path d="M79.1497 63.7004H71.5371V85.8207H79.1497V63.7004Z" fill="#FFC306"/>
<path d="M92.5292 63.7004H84.9638V96.9664C87.7778 94.864 90.3192 92.4185 92.5292 89.6864V63.7004Z" fill="#FFC306"/>
<path d="M62.6017 0C28.0741 0 0 28.2282 0 62.9247C0 85.0196 11.7842 105.724 30.8285 117.263L37.5472 114.798V63.7001H29.9673V107.518C15.9884 96.9879 7.55451 80.4441 7.55451 62.9247C7.55451 32.4324 32.2493 7.64401 62.6017 7.64401C92.8416 7.64401 117.445 32.4324 117.445 62.9247C117.422 73.3713 114.462 83.5999 108.903 92.4389C103.345 101.278 95.4134 108.37 86.0174 112.902L32.7035 132.303L35.2725 139.478L88.7609 120.011L89.0879 119.876C110.908 109.528 125 87.1708 125 62.9247C125 28.2282 97.0203 0 62.6017 0Z" fill="white"/>
</svg>
