<svg width="358" height="146" viewBox="0 0 358 146" fill="none" xmlns="http://www.w3.org/2000/svg">
<path d="M139.531 124.095L137.446 118.348L183.297 101.609L185.382 107.357L139.531 124.095Z" fill="white"/>
<path d="M139.531 136.327L137.446 130.579L183.297 113.843L185.382 119.591L139.531 136.327Z" fill="white"/>
<path d="M146.665 145.957L144.58 140.209L176.164 128.681L178.249 134.429L146.665 145.957Z" fill="white"/>
<path d="M189.081 51.0849H182.984V77.763C185.252 76.077 187.3 74.1158 189.081 71.9247V51.0849Z" fill="#F3B012"/>
<path d="M177.112 51.0849H170.977V68.8246H177.112V51.0849Z" fill="#F8BB1C"/>
<path d="M165.105 51.0849H158.97V68.8246H165.105V51.0849Z" fill="#F2C53D"/>
<path d="M153.09 51.0849H146.955V68.8246H153.09V51.0849Z" fill="#F1D270"/>
<path d="M161.395 0C133.568 0 110.943 22.6379 110.943 50.4632C110.943 68.1823 120.44 84.7864 135.788 94.0401L141.203 92.0638V51.0849H135.094V86.2255C123.828 77.7805 117.031 64.513 117.031 50.4632C117.031 26.0095 136.933 6.13019 161.395 6.13019C185.766 6.13019 205.594 26.0095 205.594 50.4632C205.575 58.8409 203.19 67.0438 198.71 74.1323C194.23 81.2209 187.838 86.9083 180.266 90.5429L137.299 106.102L139.37 111.856L182.477 96.244L182.741 96.136C200.326 87.8369 211.683 69.9075 211.683 50.4632C211.683 22.6379 189.133 0 161.395 0Z" fill="white"/>
<path d="M53.7711 61.8274V72.0711H33.394V138.379H20.8372V72.0711H0.349976V61.8274H53.7711Z" fill="white"/>
<path d="M89.0679 76.6972C93.694 76.6972 97.8062 77.6885 101.404 79.6712C105.076 81.6538 107.94 84.5911 109.996 88.4829C112.125 92.3747 113.19 97.0743 113.19 102.582V138.379H100.743V104.454C100.743 99.0203 99.3849 94.8714 96.668 92.0076C93.9511 89.0703 90.2428 87.6017 85.5432 87.6017C80.8436 87.6017 77.0986 89.0703 74.3082 92.0076C71.5913 94.8714 70.2328 99.0203 70.2328 104.454V138.379H57.6761V56.8708H70.2328V84.7379C72.3623 82.1678 75.0426 80.1852 78.2735 78.79C81.5779 77.3948 85.176 76.6972 89.0679 76.6972Z" fill="white"/>
<path d="M246.179 76.6972C250.952 76.6972 255.211 77.6885 258.956 79.6712C262.775 81.6538 265.749 84.5911 267.878 88.4829C270.008 92.3747 271.073 97.0743 271.073 102.582V138.379H258.626V104.454C258.626 99.0203 257.268 94.8714 254.551 92.0076C251.834 89.0703 248.125 87.6017 243.426 87.6017C238.726 87.6017 234.981 89.0703 232.191 92.0076C229.474 94.8714 228.115 99.0203 228.115 104.454V138.379H215.559V77.6885H228.115V84.6278C230.171 82.1311 232.778 80.1852 235.936 78.79C239.167 77.3948 242.581 76.6972 246.179 76.6972Z" fill="white"/>
<path d="M278.498 107.979C278.498 101.737 279.746 96.2666 282.243 91.567C284.813 86.794 288.338 83.1224 292.817 80.5523C297.296 77.9823 302.437 76.6972 308.238 76.6972C315.581 76.6972 321.639 78.4596 326.412 81.9843C331.258 85.4355 334.526 90.3921 336.215 96.854H322.667C321.565 93.8434 319.803 91.4936 317.38 89.8047C314.957 88.1158 311.909 87.2713 308.238 87.2713C303.097 87.2713 298.985 89.1071 295.901 92.7786C292.891 96.3767 291.385 101.443 291.385 107.979C291.385 114.514 292.891 119.618 295.901 123.289C298.985 126.961 303.097 128.797 308.238 128.797C315.507 128.797 320.317 125.602 322.667 119.214H336.215C334.452 125.382 331.148 130.302 326.302 133.973C321.455 137.572 315.434 139.371 308.238 139.371C302.437 139.371 297.296 138.086 292.817 135.515C288.338 132.872 284.813 129.2 282.243 124.501C279.746 119.728 278.498 114.22 278.498 107.979Z" fill="white"/>
<path d="M349.389 139.15C347.113 139.15 345.204 138.379 343.662 136.837C342.12 135.295 341.349 133.386 341.349 131.11C341.349 128.833 342.12 126.924 343.662 125.382C345.204 123.84 347.113 123.069 349.389 123.069C351.592 123.069 353.465 123.84 355.007 125.382C356.549 126.924 357.32 128.833 357.32 131.11C357.32 133.386 356.549 135.295 355.007 136.837C353.465 138.379 351.592 139.15 349.389 139.15Z" fill="white"/>
</svg>
